{
 "cells": [
  {
   "cell_type": "code",
   "execution_count": 1,
   "id": "814e6c8f-a76a-4eec-94e4-733dde466ca8",
   "metadata": {
    "tags": []
   },
   "outputs": [],
   "source": [
    "from SIRmodel import SIR"
   ]
  },
  {
   "cell_type": "code",
   "execution_count": 2,
   "id": "c9fcf123-b95c-456b-a9f4-ae6a9e2e7fdb",
   "metadata": {},
   "outputs": [],
   "source": [
    "# Set params\n",
    "networks = [\"random\", \"scale-free\", \"small-world\"]\n",
    "TIME = 30 # days\n",
    "RATE_IMMUNE = 0.53\n",
    "RATE_SI = 1 - RATE_IMMUNE\n",
    "RATE_RI = 0.178"
   ]
  },
  {
   "cell_type": "code",
   "execution_count": 3,
   "id": "93fdd001-6355-40da-be6f-bc5092d61d7f",
   "metadata": {
    "tags": []
   },
   "outputs": [
    {
     "name": "stderr",
     "output_type": "stream",
     "text": [
      "ffmpeg version 5.1.2 Copyright (c) 2000-2022 the FFmpeg developers\n",
      "  built with Apple clang version 14.0.0 (clang-1400.0.29.202)\n",
      "  configuration: --prefix=/opt/homebrew/Cellar/ffmpeg/5.1.2_6 --enable-shared --enable-pthreads --enable-version3 --cc=clang --host-cflags= --host-ldflags= --enable-ffplay --enable-gnutls --enable-gpl --enable-libaom --enable-libaribb24 --enable-libbluray --enable-libdav1d --enable-libmp3lame --enable-libopus --enable-librav1e --enable-librist --enable-librubberband --enable-libsnappy --enable-libsrt --enable-libsvtav1 --enable-libtesseract --enable-libtheora --enable-libvidstab --enable-libvmaf --enable-libvorbis --enable-libvpx --enable-libwebp --enable-libx264 --enable-libx265 --enable-libxml2 --enable-libxvid --enable-lzma --enable-libfontconfig --enable-libfreetype --enable-frei0r --enable-libass --enable-libopencore-amrnb --enable-libopencore-amrwb --enable-libopenjpeg --enable-libspeex --enable-libsoxr --enable-libzmq --enable-libzimg --disable-libjack --disable-indev=jack --enable-videotoolbox --enable-neon\n",
      "  libavutil      57. 28.100 / 57. 28.100\n",
      "  libavcodec     59. 37.100 / 59. 37.100\n",
      "  libavformat    59. 27.100 / 59. 27.100\n",
      "  libavdevice    59.  7.100 / 59.  7.100\n",
      "  libavfilter     8. 44.100 /  8. 44.100\n",
      "  libswscale      6.  7.100 /  6.  7.100\n",
      "  libswresample   4.  7.100 /  4.  7.100\n",
      "  libpostproc    56.  6.100 / 56.  6.100\n",
      "Input #0, image2, from 'outputs/scale-free/simulation/%01d.jpg':\n",
      "  Duration: 00:00:19.80, start: 0.000000, bitrate: N/A\n",
      "  Stream #0:0: Video: mjpeg (Baseline), yuvj420p(pc, bt470bg/unknown/unknown), 1600x900 [SAR 100:100 DAR 16:9], 5 fps, 5 tbr, 5 tbn\n",
      "Stream mapping:\n",
      "  Stream #0:0 -> #0:0 (mjpeg (native) -> mpeg4 (native))\n",
      "Press [q] to stop, [?] for help\n",
      "[swscaler @ 0x128008000] [swscaler @ 0x130008000] deprecated pixel format used, make sure you did set range correctly\n",
      "[swscaler @ 0x128008000] [swscaler @ 0x128018000] deprecated pixel format used, make sure you did set range correctly\n",
      "[swscaler @ 0x128008000] [swscaler @ 0x130018000] deprecated pixel format used, make sure you did set range correctly\n",
      "[swscaler @ 0x128008000] [swscaler @ 0x130028000] deprecated pixel format used, make sure you did set range correctly\n",
      "[swscaler @ 0x128008000] [swscaler @ 0x130038000] deprecated pixel format used, make sure you did set range correctly\n",
      "[swscaler @ 0x128008000] [swscaler @ 0x130048000] deprecated pixel format used, make sure you did set range correctly\n",
      "[swscaler @ 0x128008000] [swscaler @ 0x110560000] deprecated pixel format used, make sure you did set range correctly\n",
      "[swscaler @ 0x128008000] [swscaler @ 0x110570000] deprecated pixel format used, make sure you did set range correctly\n",
      "[swscaler @ 0x128008000] [swscaler @ 0x110580000] deprecated pixel format used, make sure you did set range correctly\n",
      "[swscaler @ 0x130048000] [swscaler @ 0x110580000] deprecated pixel format used, make sure you did set range correctly\n",
      "[swscaler @ 0x130048000] [swscaler @ 0x110590000] deprecated pixel format used, make sure you did set range correctly\n",
      "[swscaler @ 0x130048000] [swscaler @ 0x110560000] deprecated pixel format used, make sure you did set range correctly\n",
      "[swscaler @ 0x130048000] [swscaler @ 0x110570000] deprecated pixel format used, make sure you did set range correctly\n",
      "[swscaler @ 0x130048000] [swscaler @ 0x1105a0000] deprecated pixel format used, make sure you did set range correctly\n",
      "[swscaler @ 0x130048000] [swscaler @ 0x1105b0000] deprecated pixel format used, make sure you did set range correctly\n",
      "[swscaler @ 0x130048000] [swscaler @ 0x1105c0000] deprecated pixel format used, make sure you did set range correctly\n",
      "[swscaler @ 0x130048000] [swscaler @ 0x1105d0000] deprecated pixel format used, make sure you did set range correctly\n",
      "[swscaler @ 0x130048000] [swscaler @ 0x138008000] deprecated pixel format used, make sure you did set range correctly\n",
      "[swscaler @ 0x130048000] [swscaler @ 0x130058000] deprecated pixel format used, make sure you did set range correctly\n",
      "[swscaler @ 0x130048000] [swscaler @ 0x130008000] deprecated pixel format used, make sure you did set range correctly\n",
      "[swscaler @ 0x130048000] [swscaler @ 0x130018000] deprecated pixel format used, make sure you did set range correctly\n",
      "[swscaler @ 0x130048000] [swscaler @ 0x1105d0000] deprecated pixel format used, make sure you did set range correctly\n",
      "[swscaler @ 0x130048000] [swscaler @ 0x1105e0000] deprecated pixel format used, make sure you did set range correctly\n",
      "[swscaler @ 0x130048000] [swscaler @ 0x110560000] deprecated pixel format used, make sure you did set range correctly\n",
      "[swscaler @ 0x130048000] [swscaler @ 0x110570000] deprecated pixel format used, make sure you did set range correctly\n",
      "[swscaler @ 0x130048000] [swscaler @ 0x110580000] deprecated pixel format used, make sure you did set range correctly\n",
      "[swscaler @ 0x130048000] [swscaler @ 0x110590000] deprecated pixel format used, make sure you did set range correctly\n",
      "[swscaler @ 0x130048000] [swscaler @ 0x130058000] deprecated pixel format used, make sure you did set range correctly\n",
      "[swscaler @ 0x130048000] [swscaler @ 0x130008000] deprecated pixel format used, make sure you did set range correctly\n",
      "[swscaler @ 0x130048000] [swscaler @ 0x130018000] deprecated pixel format used, make sure you did set range correctly\n",
      "[swscaler @ 0x130048000] [swscaler @ 0x130028000] deprecated pixel format used, make sure you did set range correctly\n",
      "[swscaler @ 0x130048000] [swscaler @ 0x130038000] deprecated pixel format used, make sure you did set range correctly\n",
      "[swscaler @ 0x130048000] [swscaler @ 0x130068000] deprecated pixel format used, make sure you did set range correctly\n",
      "[swscaler @ 0x130048000] [swscaler @ 0x130078000] deprecated pixel format used, make sure you did set range correctly\n",
      "[swscaler @ 0x130048000] [swscaler @ 0x110590000] deprecated pixel format used, make sure you did set range correctly\n",
      "[swscaler @ 0x130048000] [swscaler @ 0x110560000] deprecated pixel format used, make sure you did set range correctly\n",
      "Output #0, mp4, to './outputs/scale-free/simulation.mp4':\n",
      "  Metadata:\n",
      "    encoder         : Lavf59.27.100\n",
      "  Stream #0:0: Video: mpeg4 (mp4v / 0x7634706D), yuv420p(tv, bt470bg/unknown/unknown, progressive), 1600x900 [SAR 1:1 DAR 16:9], q=2-31, 200 kb/s, 5 fps, 10240 tbn\n",
      "    Metadata:\n",
      "      encoder         : Lavc59.37.100 mpeg4\n",
      "    Side data:\n",
      "      cpb: bitrate max/min/avg: 0/0/200000 buffer size: 0 vbv_delay: N/A\n",
      "[swscaler @ 0x128248000] [swscaler @ 0x130048000] deprecated pixel format used, make sure you did set range correctly\n",
      "[swscaler @ 0x128248000] [swscaler @ 0x130008000] deprecated pixel format used, make sure you did set range correctly\n",
      "[swscaler @ 0x128248000] [swscaler @ 0x130018000] deprecated pixel format used, make sure you did set range correctly\n",
      "[swscaler @ 0x128248000] [swscaler @ 0x130028000] deprecated pixel format used, make sure you did set range correctly\n",
      "[swscaler @ 0x128248000] [swscaler @ 0x130038000] deprecated pixel format used, make sure you did set range correctly\n",
      "[swscaler @ 0x128248000] [swscaler @ 0x130058000] deprecated pixel format used, make sure you did set range correctly\n",
      "[swscaler @ 0x128248000] [swscaler @ 0x130068000] deprecated pixel format used, make sure you did set range correctly\n",
      "[swscaler @ 0x128248000] [swscaler @ 0x130078000] deprecated pixel format used, make sure you did set range correctly\n",
      "[swscaler @ 0x128248000] [swscaler @ 0x1105e0000] deprecated pixel format used, make sure you did set range correctly\n",
      "[swscaler @ 0x130078000] [swscaler @ 0x1105e0000] deprecated pixel format used, make sure you did set range correctly\n",
      "[swscaler @ 0x130078000] [swscaler @ 0x110030000] deprecated pixel format used, make sure you did set range correctly\n",
      "[swscaler @ 0x130078000] [swscaler @ 0x128248000] deprecated pixel format used, make sure you did set range correctly\n",
      "[swscaler @ 0x130078000] [swscaler @ 0x130098000] deprecated pixel format used, make sure you did set range correctly\n",
      "[swscaler @ 0x130078000] [swscaler @ 0x130088000] deprecated pixel format used, make sure you did set range correctly\n",
      "[swscaler @ 0x130078000] [swscaler @ 0x128258000] deprecated pixel format used, make sure you did set range correctly\n",
      "[swscaler @ 0x130078000] [swscaler @ 0x128008000] deprecated pixel format used, make sure you did set range correctly\n",
      "[swscaler @ 0x130078000] [swscaler @ 0x128018000] deprecated pixel format used, make sure you did set range correctly\n",
      "[swscaler @ 0x130078000] [swscaler @ 0x128028000] deprecated pixel format used, make sure you did set range correctly\n",
      "[swscaler @ 0x140018000] [swscaler @ 0x128028000] deprecated pixel format used, make sure you did set range correctly\n",
      "[swscaler @ 0x140018000] [swscaler @ 0x128008000] deprecated pixel format used, make sure you did set range correctly\n",
      "[swscaler @ 0x140018000] [swscaler @ 0x128018000] deprecated pixel format used, make sure you did set range correctly\n",
      "[swscaler @ 0x140018000] [swscaler @ 0x128038000] deprecated pixel format used, make sure you did set range correctly\n",
      "[swscaler @ 0x140018000] [swscaler @ 0x140028000] deprecated pixel format used, make sure you did set range correctly\n",
      "[swscaler @ 0x140018000] [swscaler @ 0x140008000] deprecated pixel format used, make sure you did set range correctly\n",
      "[swscaler @ 0x140018000] [swscaler @ 0x140038000] deprecated pixel format used, make sure you did set range correctly\n",
      "[swscaler @ 0x140018000] [swscaler @ 0x140048000] deprecated pixel format used, make sure you did set range correctly\n",
      "[swscaler @ 0x140018000] [swscaler @ 0x140058000] deprecated pixel format used, make sure you did set range correctly\n",
      "[swscaler @ 0x148008000] [swscaler @ 0x128038000] deprecated pixel format used, make sure you did set range correctly\n",
      "[swscaler @ 0x148008000] [swscaler @ 0x128008000] deprecated pixel format used, make sure you did set range correctly\n",
      "[swscaler @ 0x148008000] [swscaler @ 0x128018000] deprecated pixel format used, make sure you did set range correctly\n",
      "[swscaler @ 0x148008000] [swscaler @ 0x128028000] deprecated pixel format used, make sure you did set range correctly\n",
      "[swscaler @ 0x148008000] [swscaler @ 0x128048000] deprecated pixel format used, make sure you did set range correctly\n",
      "[swscaler @ 0x148008000] [swscaler @ 0x128058000] deprecated pixel format used, make sure you did set range correctly\n",
      "[swscaler @ 0x148008000] [swscaler @ 0x128068000] deprecated pixel format used, make sure you did set range correctly\n",
      "[swscaler @ 0x148008000] [swscaler @ 0x128078000] deprecated pixel format used, make sure you did set range correctly\n",
      "[swscaler @ 0x148008000] [swscaler @ 0x128088000] deprecated pixel format used, make sure you did set range correctly\n",
      "frame=   99 fps=0.0 q=31.0 Lsize=    2428kB time=00:00:19.60 bitrate=1014.8kbits/s speed=41.4x    \n",
      "video:2427kB audio:0kB subtitle:0kB other streams:0kB global headers:0kB muxing overhead: 0.054609%\n"
     ]
    }
   ],
   "source": [
    "# Scale-free network\n",
    "sf = SIR(networks[1], time = TIME, rate_si = RATE_SI, rate_ir = RATE_RI)\n",
    "sf.make_video(\"simulation.mp4\")"
   ]
  },
  {
   "cell_type": "code",
   "execution_count": 4,
   "id": "ac58344d-22f4-4fb3-be87-7383d696cce2",
   "metadata": {
    "tags": []
   },
   "outputs": [
    {
     "name": "stderr",
     "output_type": "stream",
     "text": [
      "ffmpeg version 5.1.2 Copyright (c) 2000-2022 the FFmpeg developers\n",
      "  built with Apple clang version 14.0.0 (clang-1400.0.29.202)\n",
      "  configuration: --prefix=/opt/homebrew/Cellar/ffmpeg/5.1.2_6 --enable-shared --enable-pthreads --enable-version3 --cc=clang --host-cflags= --host-ldflags= --enable-ffplay --enable-gnutls --enable-gpl --enable-libaom --enable-libaribb24 --enable-libbluray --enable-libdav1d --enable-libmp3lame --enable-libopus --enable-librav1e --enable-librist --enable-librubberband --enable-libsnappy --enable-libsrt --enable-libsvtav1 --enable-libtesseract --enable-libtheora --enable-libvidstab --enable-libvmaf --enable-libvorbis --enable-libvpx --enable-libwebp --enable-libx264 --enable-libx265 --enable-libxml2 --enable-libxvid --enable-lzma --enable-libfontconfig --enable-libfreetype --enable-frei0r --enable-libass --enable-libopencore-amrnb --enable-libopencore-amrwb --enable-libopenjpeg --enable-libspeex --enable-libsoxr --enable-libzmq --enable-libzimg --disable-libjack --disable-indev=jack --enable-videotoolbox --enable-neon\n",
      "  libavutil      57. 28.100 / 57. 28.100\n",
      "  libavcodec     59. 37.100 / 59. 37.100\n",
      "  libavformat    59. 27.100 / 59. 27.100\n",
      "  libavdevice    59.  7.100 / 59.  7.100\n",
      "  libavfilter     8. 44.100 /  8. 44.100\n",
      "  libswscale      6.  7.100 /  6.  7.100\n",
      "  libswresample   4.  7.100 /  4.  7.100\n",
      "  libpostproc    56.  6.100 / 56.  6.100\n",
      "Input #0, image2, from 'outputs/small-world/simulation/%01d.jpg':\n",
      "  Duration: 00:00:19.80, start: 0.000000, bitrate: N/A\n",
      "  Stream #0:0: Video: mjpeg (Baseline), yuvj420p(pc, bt470bg/unknown/unknown), 1600x900 [SAR 100:100 DAR 16:9], 5 fps, 5 tbr, 5 tbn\n",
      "Stream mapping:\n",
      "  Stream #0:0 -> #0:0 (mjpeg (native) -> mpeg4 (native))\n",
      "Press [q] to stop, [?] for help\n",
      "[swscaler @ 0x128600000] [swscaler @ 0x128610000] deprecated pixel format used, make sure you did set range correctly\n",
      "[swscaler @ 0x128600000] [swscaler @ 0x128620000] deprecated pixel format used, make sure you did set range correctly\n",
      "[swscaler @ 0x128600000] [swscaler @ 0x128630000] deprecated pixel format used, make sure you did set range correctly\n",
      "[swscaler @ 0x128600000] [swscaler @ 0x128640000] deprecated pixel format used, make sure you did set range correctly\n",
      "[swscaler @ 0x128600000] [swscaler @ 0x128650000] deprecated pixel format used, make sure you did set range correctly\n",
      "[swscaler @ 0x128600000] [swscaler @ 0x128660000] deprecated pixel format used, make sure you did set range correctly\n",
      "[swscaler @ 0x128600000] [swscaler @ 0x128670000] deprecated pixel format used, make sure you did set range correctly\n",
      "[swscaler @ 0x128600000] [swscaler @ 0x128680000] deprecated pixel format used, make sure you did set range correctly\n",
      "[swscaler @ 0x128600000] [swscaler @ 0x128690000] deprecated pixel format used, make sure you did set range correctly\n",
      "[swscaler @ 0x128600000] [swscaler @ 0x118008000] deprecated pixel format used, make sure you did set range correctly\n",
      "[swscaler @ 0x128600000] [swscaler @ 0x118018000] deprecated pixel format used, make sure you did set range correctly\n",
      "[swscaler @ 0x128600000] [swscaler @ 0x118028000] deprecated pixel format used, make sure you did set range correctly\n",
      "[swscaler @ 0x128600000] [swscaler @ 0x118038000] deprecated pixel format used, make sure you did set range correctly\n",
      "[swscaler @ 0x128600000] [swscaler @ 0x118048000] deprecated pixel format used, make sure you did set range correctly\n",
      "[swscaler @ 0x128600000] [swscaler @ 0x118058000] deprecated pixel format used, make sure you did set range correctly\n",
      "[swscaler @ 0x128600000] [swscaler @ 0x118068000] deprecated pixel format used, make sure you did set range correctly\n",
      "[swscaler @ 0x128600000] [swscaler @ 0x118078000] deprecated pixel format used, make sure you did set range correctly\n",
      "[swscaler @ 0x128600000] [swscaler @ 0x118088000] deprecated pixel format used, make sure you did set range correctly\n",
      "    Last message repeated 1 times\n",
      "[swscaler @ 0x128600000] [swscaler @ 0x118098000] deprecated pixel format used, make sure you did set range correctly\n",
      "[swscaler @ 0x128600000] [swscaler @ 0x118008000] deprecated pixel format used, make sure you did set range correctly\n",
      "[swscaler @ 0x128600000] [swscaler @ 0x118018000] deprecated pixel format used, make sure you did set range correctly\n",
      "[swscaler @ 0x128600000] [swscaler @ 0x118028000] deprecated pixel format used, make sure you did set range correctly\n",
      "[swscaler @ 0x128600000] [swscaler @ 0x118038000] deprecated pixel format used, make sure you did set range correctly\n",
      "[swscaler @ 0x128600000] [swscaler @ 0x118048000] deprecated pixel format used, make sure you did set range correctly\n",
      "[swscaler @ 0x128600000] [swscaler @ 0x118058000] deprecated pixel format used, make sure you did set range correctly\n",
      "[swscaler @ 0x128600000] [swscaler @ 0x118068000] deprecated pixel format used, make sure you did set range correctly\n",
      "[swscaler @ 0x118068000] [swscaler @ 0x118078000] deprecated pixel format used, make sure you did set range correctly\n",
      "[swscaler @ 0x118068000] [swscaler @ 0x118088000] deprecated pixel format used, make sure you did set range correctly\n",
      "[swscaler @ 0x118068000] [swscaler @ 0x118098000] deprecated pixel format used, make sure you did set range correctly\n",
      "[swscaler @ 0x118068000] [swscaler @ 0x118008000] deprecated pixel format used, make sure you did set range correctly\n",
      "[swscaler @ 0x118068000] [swscaler @ 0x118018000] deprecated pixel format used, make sure you did set range correctly\n",
      "[swscaler @ 0x118068000] [swscaler @ 0x118028000] deprecated pixel format used, make sure you did set range correctly\n",
      "[swscaler @ 0x118068000] [swscaler @ 0x118038000] deprecated pixel format used, make sure you did set range correctly\n",
      "[swscaler @ 0x118068000] [swscaler @ 0x118048000] deprecated pixel format used, make sure you did set range correctly\n",
      "[swscaler @ 0x118068000] [swscaler @ 0x118058000] deprecated pixel format used, make sure you did set range correctly\n",
      "Output #0, mp4, to './outputs/small-world/simulation.mp4':\n",
      "  Metadata:\n",
      "    encoder         : Lavf59.27.100\n",
      "  Stream #0:0: Video: mpeg4 (mp4v / 0x7634706D), yuv420p(tv, bt470bg/unknown/unknown, progressive), 1600x900 [SAR 1:1 DAR 16:9], q=2-31, 200 kb/s, 5 fps, 10240 tbn\n",
      "    Metadata:\n",
      "      encoder         : Lavc59.37.100 mpeg4\n",
      "    Side data:\n",
      "      cpb: bitrate max/min/avg: 0/0/200000 buffer size: 0 vbv_delay: N/A\n",
      "[swscaler @ 0x118068000] [swscaler @ 0x148008000] deprecated pixel format used, make sure you did set range correctly\n",
      "[swscaler @ 0x118068000] [swscaler @ 0x148018000] deprecated pixel format used, make sure you did set range correctly\n",
      "[swscaler @ 0x118068000] [swscaler @ 0x148028000] deprecated pixel format used, make sure you did set range correctly\n",
      "[swscaler @ 0x118068000] [swscaler @ 0x148038000] deprecated pixel format used, make sure you did set range correctly\n",
      "[swscaler @ 0x118068000] [swscaler @ 0x148048000] deprecated pixel format used, make sure you did set range correctly\n",
      "[swscaler @ 0x118068000] [swscaler @ 0x1481f8000] deprecated pixel format used, make sure you did set range correctly\n",
      "[swscaler @ 0x118068000] [swscaler @ 0x148208000] deprecated pixel format used, make sure you did set range correctly\n",
      "[swscaler @ 0x118068000] [swscaler @ 0x148218000] deprecated pixel format used, make sure you did set range correctly\n",
      "[swscaler @ 0x118068000] [swscaler @ 0x148228000] deprecated pixel format used, make sure you did set range correctly\n",
      "[swscaler @ 0x118068000] [swscaler @ 0x118078000] deprecated pixel format used, make sure you did set range correctly\n",
      "[swscaler @ 0x118068000] [swscaler @ 0x118088000] deprecated pixel format used, make sure you did set range correctly\n",
      "[swscaler @ 0x118068000] [swscaler @ 0x118098000] deprecated pixel format used, make sure you did set range correctly\n",
      "[swscaler @ 0x118068000] [swscaler @ 0x1180a8000] deprecated pixel format used, make sure you did set range correctly\n",
      "[swscaler @ 0x118068000] [swscaler @ 0x118008000] deprecated pixel format used, make sure you did set range correctly\n",
      "[swscaler @ 0x118068000] [swscaler @ 0x118018000] deprecated pixel format used, make sure you did set range correctly\n",
      "[swscaler @ 0x118068000] [swscaler @ 0x118028000] deprecated pixel format used, make sure you did set range correctly\n",
      "[swscaler @ 0x118068000] [swscaler @ 0x118038000] deprecated pixel format used, make sure you did set range correctly\n",
      "[swscaler @ 0x118068000] [swscaler @ 0x118048000] deprecated pixel format used, make sure you did set range correctly\n",
      "[swscaler @ 0x118068000] [swscaler @ 0x148228000] deprecated pixel format used, make sure you did set range correctly\n",
      "[swscaler @ 0x118068000] [swscaler @ 0x148238000] deprecated pixel format used, make sure you did set range correctly\n",
      "[swscaler @ 0x118068000] [swscaler @ 0x148248000] deprecated pixel format used, make sure you did set range correctly\n",
      "[swscaler @ 0x118068000] [swscaler @ 0x1481f8000] deprecated pixel format used, make sure you did set range correctly\n",
      "[swscaler @ 0x118068000] [swscaler @ 0x148208000] deprecated pixel format used, make sure you did set range correctly\n",
      "[swscaler @ 0x118068000] [swscaler @ 0x148218000] deprecated pixel format used, make sure you did set range correctly\n",
      "[swscaler @ 0x118068000] [swscaler @ 0x148008000] deprecated pixel format used, make sure you did set range correctly\n",
      "[swscaler @ 0x118068000] [swscaler @ 0x148018000] deprecated pixel format used, make sure you did set range correctly\n",
      "[swscaler @ 0x118068000] [swscaler @ 0x148028000] deprecated pixel format used, make sure you did set range correctly\n",
      "[swscaler @ 0x118068000] [swscaler @ 0x118078000] deprecated pixel format used, make sure you did set range correctly\n",
      "[swscaler @ 0x118068000] [swscaler @ 0x118088000] deprecated pixel format used, make sure you did set range correctly\n",
      "[swscaler @ 0x118068000] [swscaler @ 0x118098000] deprecated pixel format used, make sure you did set range correctly\n",
      "[swscaler @ 0x118068000] [swscaler @ 0x1180a8000] deprecated pixel format used, make sure you did set range correctly\n",
      "[swscaler @ 0x118068000] [swscaler @ 0x118008000] deprecated pixel format used, make sure you did set range correctly\n",
      "[swscaler @ 0x118068000] [swscaler @ 0x118018000] deprecated pixel format used, make sure you did set range correctly\n",
      "[swscaler @ 0x118068000] [swscaler @ 0x118028000] deprecated pixel format used, make sure you did set range correctly\n",
      "[swscaler @ 0x118068000] [swscaler @ 0x118038000] deprecated pixel format used, make sure you did set range correctly\n",
      "[swscaler @ 0x118068000] [swscaler @ 0x118048000] deprecated pixel format used, make sure you did set range correctly\n",
      "frame=   99 fps=0.0 q=31.0 Lsize=    3526kB time=00:00:19.60 bitrate=1473.6kbits/s speed=35.6x    \n",
      "video:3524kB audio:0kB subtitle:0kB other streams:0kB global headers:0kB muxing overhead: 0.038045%\n"
     ]
    }
   ],
   "source": [
    "# Small world network\n",
    "sw = SIR(networks[2], time = TIME, rate_si = RATE_SI, rate_ir = RATE_RI)\n",
    "sw.make_video(\"simulation.mp4\")"
   ]
  },
  {
   "cell_type": "code",
   "execution_count": 5,
   "id": "215f93d1-429e-4218-bd11-5568da1dad1e",
   "metadata": {
    "tags": []
   },
   "outputs": [
    {
     "name": "stderr",
     "output_type": "stream",
     "text": [
      "ffmpeg version 5.1.2 Copyright (c) 2000-2022 the FFmpeg developers\n",
      "  built with Apple clang version 14.0.0 (clang-1400.0.29.202)\n",
      "  configuration: --prefix=/opt/homebrew/Cellar/ffmpeg/5.1.2_6 --enable-shared --enable-pthreads --enable-version3 --cc=clang --host-cflags= --host-ldflags= --enable-ffplay --enable-gnutls --enable-gpl --enable-libaom --enable-libaribb24 --enable-libbluray --enable-libdav1d --enable-libmp3lame --enable-libopus --enable-librav1e --enable-librist --enable-librubberband --enable-libsnappy --enable-libsrt --enable-libsvtav1 --enable-libtesseract --enable-libtheora --enable-libvidstab --enable-libvmaf --enable-libvorbis --enable-libvpx --enable-libwebp --enable-libx264 --enable-libx265 --enable-libxml2 --enable-libxvid --enable-lzma --enable-libfontconfig --enable-libfreetype --enable-frei0r --enable-libass --enable-libopencore-amrnb --enable-libopencore-amrwb --enable-libopenjpeg --enable-libspeex --enable-libsoxr --enable-libzmq --enable-libzimg --disable-libjack --disable-indev=jack --enable-videotoolbox --enable-neon\n",
      "  libavutil      57. 28.100 / 57. 28.100\n",
      "  libavcodec     59. 37.100 / 59. 37.100\n",
      "  libavformat    59. 27.100 / 59. 27.100\n",
      "  libavdevice    59.  7.100 / 59.  7.100\n",
      "  libavfilter     8. 44.100 /  8. 44.100\n",
      "  libswscale      6.  7.100 /  6.  7.100\n",
      "  libswresample   4.  7.100 /  4.  7.100\n",
      "  libpostproc    56.  6.100 / 56.  6.100\n",
      "Input #0, image2, from 'outputs/random/simulation/%01d.jpg':\n",
      "  Duration: 00:00:19.80, start: 0.000000, bitrate: N/A\n",
      "  Stream #0:0: Video: mjpeg (Baseline), yuvj420p(pc, bt470bg/unknown/unknown), 1600x900 [SAR 100:100 DAR 16:9], 5 fps, 5 tbr, 5 tbn\n",
      "Stream mapping:\n",
      "  Stream #0:0 -> #0:0 (mjpeg (native) -> mpeg4 (native))\n",
      "Press [q] to stop, [?] for help\n",
      "[swscaler @ 0x150590000] [swscaler @ 0x1505a0000] deprecated pixel format used, make sure you did set range correctly\n",
      "[swscaler @ 0x150590000] [swscaler @ 0x1505b0000] deprecated pixel format used, make sure you did set range correctly\n",
      "[swscaler @ 0x150590000] [swscaler @ 0x1505c0000] deprecated pixel format used, make sure you did set range correctly\n",
      "[swscaler @ 0x150590000] [swscaler @ 0x1505d0000] deprecated pixel format used, make sure you did set range correctly\n",
      "[swscaler @ 0x150590000] [swscaler @ 0x1505e0000] deprecated pixel format used, make sure you did set range correctly\n",
      "[swscaler @ 0x150590000] [swscaler @ 0x1505f0000] deprecated pixel format used, make sure you did set range correctly\n",
      "[swscaler @ 0x150590000] [swscaler @ 0x150600000] deprecated pixel format used, make sure you did set range correctly\n",
      "[swscaler @ 0x150590000] [swscaler @ 0x150610000] deprecated pixel format used, make sure you did set range correctly\n",
      "[swscaler @ 0x150590000] [swscaler @ 0x150620000] deprecated pixel format used, make sure you did set range correctly\n",
      "[swscaler @ 0x130008000] [swscaler @ 0x130018000] deprecated pixel format used, make sure you did set range correctly\n",
      "[swscaler @ 0x130008000] [swscaler @ 0x130028000] deprecated pixel format used, make sure you did set range correctly\n",
      "[swscaler @ 0x130008000] [swscaler @ 0x130038000] deprecated pixel format used, make sure you did set range correctly\n",
      "[swscaler @ 0x130008000] [swscaler @ 0x130048000] deprecated pixel format used, make sure you did set range correctly\n",
      "[swscaler @ 0x130008000] [swscaler @ 0x130058000] deprecated pixel format used, make sure you did set range correctly\n",
      "[swscaler @ 0x130008000] [swscaler @ 0x130068000] deprecated pixel format used, make sure you did set range correctly\n",
      "[swscaler @ 0x130008000] [swscaler @ 0x130078000] deprecated pixel format used, make sure you did set range correctly\n",
      "[swscaler @ 0x130008000] [swscaler @ 0x130088000] deprecated pixel format used, make sure you did set range correctly\n",
      "[swscaler @ 0x130008000] [swscaler @ 0x130098000] deprecated pixel format used, make sure you did set range correctly\n",
      "[swscaler @ 0x130008000] [swscaler @ 0x130018000] deprecated pixel format used, make sure you did set range correctly\n",
      "[swscaler @ 0x130008000] [swscaler @ 0x130028000] deprecated pixel format used, make sure you did set range correctly\n",
      "[swscaler @ 0x130008000] [swscaler @ 0x130038000] deprecated pixel format used, make sure you did set range correctly\n",
      "[swscaler @ 0x130008000] [swscaler @ 0x130048000] deprecated pixel format used, make sure you did set range correctly\n",
      "[swscaler @ 0x130008000] [swscaler @ 0x130058000] deprecated pixel format used, make sure you did set range correctly\n",
      "[swscaler @ 0x130008000] [swscaler @ 0x130068000] deprecated pixel format used, make sure you did set range correctly\n",
      "[swscaler @ 0x130008000] [swscaler @ 0x130078000] deprecated pixel format used, make sure you did set range correctly\n",
      "[swscaler @ 0x130008000] [swscaler @ 0x130088000] deprecated pixel format used, make sure you did set range correctly\n",
      "[swscaler @ 0x130008000] [swscaler @ 0x130098000] deprecated pixel format used, make sure you did set range correctly\n",
      "[swscaler @ 0x130008000] [swscaler @ 0x130018000] deprecated pixel format used, make sure you did set range correctly\n",
      "[swscaler @ 0x130008000] [swscaler @ 0x130028000] deprecated pixel format used, make sure you did set range correctly\n",
      "[swscaler @ 0x130008000] [swscaler @ 0x130038000] deprecated pixel format used, make sure you did set range correctly\n",
      "[swscaler @ 0x130008000] [swscaler @ 0x130048000] deprecated pixel format used, make sure you did set range correctly\n",
      "[swscaler @ 0x130008000] [swscaler @ 0x130058000] deprecated pixel format used, make sure you did set range correctly\n",
      "[swscaler @ 0x130008000] [swscaler @ 0x130068000] deprecated pixel format used, make sure you did set range correctly\n",
      "[swscaler @ 0x130008000] [swscaler @ 0x130078000] deprecated pixel format used, make sure you did set range correctly\n",
      "[swscaler @ 0x130008000] [swscaler @ 0x130088000] deprecated pixel format used, make sure you did set range correctly\n",
      "[swscaler @ 0x130008000] [swscaler @ 0x130098000] deprecated pixel format used, make sure you did set range correctly\n",
      "Output #0, mp4, to './outputs/random/simulation.mp4':\n",
      "  Metadata:\n",
      "    encoder         : Lavf59.27.100\n",
      "  Stream #0:0: Video: mpeg4 (mp4v / 0x7634706D), yuv420p(tv, bt470bg/unknown/unknown, progressive), 1600x900 [SAR 1:1 DAR 16:9], q=2-31, 200 kb/s, 5 fps, 10240 tbn\n",
      "    Metadata:\n",
      "      encoder         : Lavc59.37.100 mpeg4\n",
      "    Side data:\n",
      "      cpb: bitrate max/min/avg: 0/0/200000 buffer size: 0 vbv_delay: N/A\n",
      "[swscaler @ 0x1303d8000] [swscaler @ 0x1303e8000] deprecated pixel format used, make sure you did set range correctly\n",
      "[swscaler @ 0x1303d8000] [swscaler @ 0x1300d0000] deprecated pixel format used, make sure you did set range correctly\n",
      "[swscaler @ 0x1303d8000] [swscaler @ 0x1300e0000] deprecated pixel format used, make sure you did set range correctly\n",
      "[swscaler @ 0x1303d8000] [swscaler @ 0x1300f0000] deprecated pixel format used, make sure you did set range correctly\n",
      "[swscaler @ 0x1303d8000] [swscaler @ 0x130100000] deprecated pixel format used, make sure you did set range correctly\n",
      "[swscaler @ 0x1303d8000] [swscaler @ 0x130110000] deprecated pixel format used, make sure you did set range correctly\n",
      "[swscaler @ 0x1303d8000] [swscaler @ 0x130120000] deprecated pixel format used, make sure you did set range correctly\n",
      "[swscaler @ 0x1303d8000] [swscaler @ 0x130130000] deprecated pixel format used, make sure you did set range correctly\n",
      "[swscaler @ 0x1303d8000] [swscaler @ 0x130140000] deprecated pixel format used, make sure you did set range correctly\n",
      "[swscaler @ 0x158008000] [swscaler @ 0x151998000] deprecated pixel format used, make sure you did set range correctly\n",
      "[swscaler @ 0x158008000] [swscaler @ 0x1519a8000] deprecated pixel format used, make sure you did set range correctly\n",
      "[swscaler @ 0x158008000] [swscaler @ 0x1504f8000] deprecated pixel format used, make sure you did set range correctly\n",
      "[swscaler @ 0x158008000] [swscaler @ 0x150508000] deprecated pixel format used, make sure you did set range correctly\n",
      "[swscaler @ 0x158008000] [swscaler @ 0x150518000] deprecated pixel format used, make sure you did set range correctly\n",
      "[swscaler @ 0x158008000] [swscaler @ 0x150528000] deprecated pixel format used, make sure you did set range correctly\n",
      "[swscaler @ 0x158008000] [swscaler @ 0x150538000] deprecated pixel format used, make sure you did set range correctly\n",
      "[swscaler @ 0x158008000] [swscaler @ 0x150548000] deprecated pixel format used, make sure you did set range correctly\n",
      "[swscaler @ 0x158008000] [swscaler @ 0x150558000] deprecated pixel format used, make sure you did set range correctly\n",
      "[swscaler @ 0x110020000] [swscaler @ 0x150558000] deprecated pixel format used, make sure you did set range correctly\n",
      "[swscaler @ 0x110020000] [swscaler @ 0x151998000] deprecated pixel format used, make sure you did set range correctly\n",
      "[swscaler @ 0x110020000] [swscaler @ 0x1519a8000] deprecated pixel format used, make sure you did set range correctly\n",
      "[swscaler @ 0x110020000] [swscaler @ 0x150568000] deprecated pixel format used, make sure you did set range correctly\n",
      "[swscaler @ 0x110020000] [swscaler @ 0x150578000] deprecated pixel format used, make sure you did set range correctly\n",
      "[swscaler @ 0x110020000] [swscaler @ 0x1504f8000] deprecated pixel format used, make sure you did set range correctly\n",
      "[swscaler @ 0x110020000] [swscaler @ 0x150508000] deprecated pixel format used, make sure you did set range correctly\n",
      "[swscaler @ 0x110020000] [swscaler @ 0x150518000] deprecated pixel format used, make sure you did set range correctly\n",
      "[swscaler @ 0x110020000] [swscaler @ 0x150528000] deprecated pixel format used, make sure you did set range correctly\n",
      "[swscaler @ 0x150528000] [swscaler @ 0x151998000] deprecated pixel format used, make sure you did set range correctly\n",
      "[swscaler @ 0x150528000] [swscaler @ 0x1519a8000] deprecated pixel format used, make sure you did set range correctly\n",
      "[swscaler @ 0x150528000] [swscaler @ 0x1504f8000] deprecated pixel format used, make sure you did set range correctly\n",
      "[swscaler @ 0x150528000] [swscaler @ 0x150508000] deprecated pixel format used, make sure you did set range correctly\n",
      "[swscaler @ 0x150528000] [swscaler @ 0x150518000] deprecated pixel format used, make sure you did set range correctly\n",
      "[swscaler @ 0x150528000] [swscaler @ 0x150538000] deprecated pixel format used, make sure you did set range correctly\n",
      "[swscaler @ 0x150528000] [swscaler @ 0x150548000] deprecated pixel format used, make sure you did set range correctly\n",
      "[swscaler @ 0x150528000] [swscaler @ 0x150558000] deprecated pixel format used, make sure you did set range correctly\n",
      "[swscaler @ 0x150528000] [swscaler @ 0x150568000] deprecated pixel format used, make sure you did set range correctly\n",
      "frame=   99 fps=0.0 q=31.0 Lsize=    2611kB time=00:00:19.60 bitrate=1091.5kbits/s speed=38.7x    \n",
      "video:2610kB audio:0kB subtitle:0kB other streams:0kB global headers:0kB muxing overhead: 0.050771%\n"
     ]
    }
   ],
   "source": [
    "# Random network\n",
    "rd = SIR(networks[0], time = TIME, rate_si = RATE_SI, rate_ir = RATE_RI)\n",
    "rd.make_video(\"simulation.mp4\")"
   ]
  }
 ],
 "metadata": {
  "kernelspec": {
   "display_name": "Python 3 (ipykernel)",
   "language": "python",
   "name": "python3"
  },
  "language_info": {
   "codemirror_mode": {
    "name": "ipython",
    "version": 3
   },
   "file_extension": ".py",
   "mimetype": "text/x-python",
   "name": "python",
   "nbconvert_exporter": "python",
   "pygments_lexer": "ipython3",
   "version": "3.11.2"
  }
 },
 "nbformat": 4,
 "nbformat_minor": 5
}
